
<global>
ampeg_attack=0.01
ampeg_release=0.5
</global>

<group>
group_label=RR1
seq_length=4

<region>
hivel=127
key=A#4
lovel=91
offset=11773
sample=Flute_staccato_FF_A#4_RR1.opus
</region>

<region>
end=22695
hivel=127
key=A#5
lovel=91
offset=12101
sample=Flute_staccato_FF_A#5_RR1.opus
</region>

<region>
hivel=127
key=A#6
lovel=91
offset=866
sample=Flute_staccato_FF_A#6_RR1.opus
</region>

<region>
hivel=127
key=A4
lovel=91
offset=1991
sample=Flute_staccato_FF_A4_RR1.opus
</region>

<region>
end=23461
hivel=127
key=A5
lovel=91
offset=10454
sample=Flute_staccato_FF_A5_RR1.opus
</region>

<region>
hivel=127
key=A6
lovel=91
offset=1077
sample=Flute_staccato_FF_A6_RR1.opus
</region>

<region>
hivel=127
key=B4
lovel=91
offset=1076
sample=Flute_staccato_FF_B4_RR1.opus
</region>

<region>
hivel=127
key=B5
lovel=91
offset=12036
sample=Flute_staccato_FF_B5_RR1.opus
</region>

<region>
hivel=127
key=B6
lovel=91
offset=8717
sample=Flute_staccato_FF_B6_RR1.opus
</region>

<region>
hivel=127
key=C#4
lovel=91
sample=Flute_staccato_FF_C#4_RR1.opus
</region>

<region>
hivel=127
key=C#5
lovel=91
offset=1973
sample=Flute_staccato_FF_C#5_RR1.opus
</region>

<region>
hivel=127
key=C#6
lovel=91
offset=232
sample=Flute_staccato_FF_C#6_RR1.opus
</region>

<region>
hivel=127
key=C4
lovel=91
offset=3744
sample=Flute_staccato_FF_C4_RR1.opus
</region>

<region>
hivel=127
key=C5
lovel=91
offset=1089
sample=Flute_staccato_FF_C5_RR1.opus
</region>

<region>
hivel=127
key=C6
lovel=91
offset=805
sample=Flute_staccato_FF_C6_RR1.opus
</region>

<region>
hivel=127
key=c7
lovel=91
offset=768
sample=Flute_staccato_FF_C7_RR1.opus
</region>

<region>
end=17551
hivel=127
key=D#4
lovel=91
sample=Flute_staccato_FF_D#4_RR1.opus
</region>

<region>
hivel=127
key=D#5
lovel=91
offset=6425
sample=Flute_staccato_FF_D#5_RR1.opus
</region>

<region>
hivel=127
key=D#6
lovel=91
offset=941
sample=Flute_staccato_FF_D#6_RR1.opus
</region>

<region>
hivel=127
key=D4
lovel=91
sample=Flute_staccato_FF_D4_RR1.opus
</region>

<region>
hivel=127
key=D5
lovel=91
offset=4348
sample=Flute_staccato_FF_D5_RR1.opus
</region>

<region>
hivel=127
key=D6
lovel=91
offset=771
sample=Flute_staccato_FF_D6_RR1.opus
</region>

<region>
hivel=127
key=E4
lovel=91
offset=2537
sample=Flute_staccato_FF_E4_RR1.opus
</region>

<region>
hivel=127
key=E5
lovel=91
offset=4048
sample=Flute_staccato_FF_E5_RR1.opus
</region>

<region>
hivel=127
key=E6
lovel=91
offset=1206
sample=Flute_staccato_FF_E6_RR1.opus
</region>

<region>
hivel=127
key=F#4
lovel=91
offset=4473
sample=Flute_staccato_FF_F#4_RR1.opus
</region>

<region>
end=12767
hivel=127
key=F#5
lovel=91
offset=1484
sample=Flute_staccato_FF_F#5_RR1.opus
</region>

<region>
hivel=127
key=F#6
lovel=91
offset=2867
sample=Flute_staccato_FF_F#6_RR1.opus
</region>

<region>
hivel=127
key=F4
lovel=91
offset=1734
sample=Flute_staccato_FF_F4_RR1.opus
</region>

<region>
end=16586
hivel=127
key=F5
lovel=91
offset=5222
sample=Flute_staccato_FF_F5_RR1.opus
</region>

<region>
hivel=127
key=F6
lovel=91
offset=1629
sample=Flute_staccato_FF_F6_RR1.opus
</region>

<region>
hivel=127
key=G#4
lovel=91
offset=1836
sample=Flute_staccato_FF_G#4_RR1.opus
</region>

<region>
hivel=127
key=G#5
lovel=91
offset=669
sample=Flute_staccato_FF_G#5_RR1.opus
</region>

<region>
hivel=127
key=G#6
lovel=91
offset=11999
sample=Flute_staccato_FF_G#6_RR1.opus
</region>

<region>
hivel=127
key=G4
lovel=91
offset=2157
sample=Flute_staccato_FF_G4_RR1.opus
</region>

<region>
hivel=127
key=G5
lovel=91
offset=975
sample=Flute_staccato_FF_G5_RR1.opus
</region>

<region>
hivel=127
key=G6
lovel=91
offset=729
sample=Flute_staccato_FF_G6_RR1.opus
</region>

<region>
hivel=90
key=A#4
lovel=46
offset=2310
sample=Flute_staccato_MF_A#4_RR1.opus
volume=-6.0
</region>

<region>
hivel=90
key=A#5
lovel=46
offset=1328
sample=Flute_staccato_MF_A#5_RR1.opus
volume=-6.0
</region>

<region>
end=14480
hivel=90
key=A#6
lovel=46
offset=908
sample=Flute_staccato_MF_A#6_RR1.opus
volume=-6.0
</region>

<region>
hivel=90
key=A4
lovel=46
offset=1148
sample=Flute_staccato_MF_A4_RR1.opus
volume=-6.0
</region>

<region>
hivel=90
key=a5
lovel=46
offset=979
sample=Flute_staccato_MF_A5_RR1.opus
volume=-6.0
</region>

<region>
hivel=90
key=A6
lovel=46
offset=1219
sample=Flute_staccato_MF_A6_RR1.opus
volume=-6.0
</region>

<region>
hivel=90
key=B4
lovel=46
offset=1284
sample=Flute_staccato_MF_B4_RR1.opus
volume=-6.0
</region>

<region>
hivel=90
key=B5
lovel=46
offset=693
sample=Flute_staccato_MF_B5_RR1.opus
volume=-6.0
</region>

<region>
hivel=90
key=B6
lovel=46
offset=10482
sample=Flute_staccato_MF_B6_RR1.opus
volume=-6.0
</region>

<region>
hivel=90
key=C#4
lovel=46
offset=1773
sample=Flute_staccato_MF_C#4_RR1.opus
volume=-6.0
</region>

<region>
hivel=90
key=C#5
lovel=46
offset=997
sample=Flute_staccato_MF_C#5_RR1.opus
volume=-6.0
</region>

<region>
hivel=90
key=C#6
lovel=46
offset=765
sample=Flute_staccato_MF_C#6_RR1.opus
volume=-6.0
</region>

<region>
hivel=90
key=C4
lovel=46
sample=Flute_staccato_MF_C4_RR1.opus
volume=-6.0
</region>

<region>
hivel=90
key=C5
lovel=46
offset=1649
sample=Flute_staccato_MF_C5_RR1.opus
volume=-6.0
</region>

<region>
hivel=90
key=C6
lovel=46
offset=4555
sample=Flute_staccato_MF_C6_RR1.opus
volume=-6.0
</region>

<region>
hivel=90
key=c7
lovel=46
offset=1948
sample=Flute_staccato_MF_C7_RR1.opus
volume=-6.0
</region>

<region>
hivel=90
key=D#4
lovel=46
offset=6914
sample=Flute_staccato_MF_D#4_RR1.opus
volume=-6.0
</region>

<region>
hivel=90
key=D#5
lovel=46
offset=4339
sample=Flute_staccato_MF_D#5_RR1.opus
volume=-6.0
</region>

<region>
hivel=90
key=D#6
lovel=46
offset=9380
sample=Flute_staccato_MF_D#6_RR1.opus
volume=-6.0
</region>

<region>
hivel=90
key=D4
lovel=46
offset=1704
sample=Flute_staccato_MF_D4_RR1.opus
volume=-6.0
</region>

<region>
hivel=90
key=D5
lovel=46
offset=4169
sample=Flute_staccato_MF_D5_RR1.opus
volume=-6.0
</region>

<region>
hivel=90
key=D6
lovel=46
offset=1063
sample=Flute_staccato_MF_D6_RR1.opus
volume=-6.0
</region>

<region>
hivel=90
key=E4
lovel=46
offset=2173
sample=Flute_staccato_MF_E4_RR1.opus
volume=-6.0
</region>

<region>
hivel=90
key=E5
lovel=46
offset=3654
sample=Flute_staccato_MF_E5_RR1.opus
volume=-6.0
</region>

<region>
hivel=90
key=E6
lovel=46
offset=667
sample=Flute_staccato_MF_E6_RR1.opus
volume=-6.0
</region>

<region>
end=16217
hivel=90
key=F#4
lovel=46
offset=1731
sample=Flute_staccato_MF_F#4_RR1.opus
volume=-6.0
</region>

<region>
hivel=90
key=F#5
lovel=46
offset=1232
sample=Flute_staccato_MF_F#5_RR1.opus
volume=-6.0
</region>

<region>
hivel=90
key=F#6
lovel=46
offset=720
sample=Flute_staccato_MF_F#6_RR1.opus
volume=-6.0
</region>

<region>
end=23216
hivel=90
key=F4
lovel=46
offset=12435
sample=Flute_staccato_MF_F4_RR1.opus
volume=-6.0
</region>

<region>
hivel=90
key=F5
lovel=46
offset=2384
sample=Flute_staccato_MF_F5_RR1.opus
volume=-6.0
</region>

<region>
hivel=90
key=F6
lovel=46
offset=601
sample=Flute_staccato_MF_F6_RR1.opus
volume=-6.0
</region>

<region>
hivel=90
key=G#4
lovel=46
offset=1714
sample=Flute_staccato_MF_G#4_RR1.opus
volume=-6.0
</region>

<region>
hivel=90
key=G#5
lovel=46
offset=1698
sample=Flute_staccato_MF_G#5_RR1.opus
volume=-6.0
</region>

<region>
hivel=90
key=G#6
lovel=46
offset=1395
sample=Flute_staccato_MF_G#6_RR1.opus
volume=-6.0
</region>

<region>
hivel=90
key=G4
lovel=46
offset=10643
sample=Flute_staccato_MF_G4_RR1.opus
volume=-6.0
</region>

<region>
hivel=90
key=G5
lovel=46
offset=12524
sample=Flute_staccato_MF_G5_RR1.opus
volume=-6.0
</region>

<region>
end=14804
hivel=90
key=G6
lovel=46
offset=1003
sample=Flute_staccato_MF_G6_RR1.opus
volume=-6.0
</region>

<region>
hivel=45
key=A#4
lovel=0
offset=1063
sample=Flute_staccato_PP_A#4_RR1.opus
</region>

<region>
hivel=45
key=A#5
lovel=0
offset=1603
sample=Flute_staccato_PP_A#5_RR1.opus
</region>

<region>
hivel=45
key=A#6
lovel=0
offset=1281
sample=Flute_staccato_PP_A#6_RR1.opus
</region>

<region>
end=13869
hivel=45
key=A4
lovel=0
offset=2404
sample=Flute_staccato_PP_A4_RR1.opus
</region>

<region>
hivel=45
key=A5
lovel=0
offset=8414
sample=Flute_staccato_PP_A5_RR1.opus
</region>

<region>
hivel=45
key=A6
lovel=0
offset=1562
sample=Flute_staccato_PP_A6_RR1.opus
</region>

<region>
hivel=45
key=B4
lovel=0
offset=1356
sample=Flute_staccato_PP_B4_RR1.opus
</region>

<region>
hivel=45
key=B5
lovel=0
offset=2291
sample=Flute_staccato_PP_B5_RR1.opus
</region>

<region>
hivel=45
key=B6
lovel=0
offset=12289
sample=Flute_staccato_PP_B6_RR1.opus
</region>

<region>
hivel=45
key=C#4
lovel=0
offset=2004
sample=Flute_staccato_PP_C#4_RR1.opus
</region>

<region>
hivel=45
key=C#5
lovel=0
offset=1254
sample=Flute_staccato_PP_C#5_RR1.opus
</region>

<region>
hivel=45
key=C#6
lovel=0
offset=3333
sample=Flute_staccato_PP_C#6_RR1.opus
</region>

<region>
hivel=45
key=C4
lovel=0
offset=1178
sample=Flute_staccato_PP_C4_RR1.opus
</region>

<region>
hivel=45
key=C5
lovel=0
offset=1532
sample=Flute_staccato_PP_C5_RR1.opus
</region>

<region>
hivel=45
key=C6
lovel=0
offset=1667
sample=Flute_staccato_PP_C6_RR1.opus
</region>

<region>
hivel=45
key=c7
lovel=0
offset=1339
sample=Flute_staccato_PP_C7_RR1.opus
</region>

<region>
hivel=45
key=D#4
lovel=0
offset=1249
sample=Flute_staccato_PP_D#4_RR1.opus
</region>

<region>
hivel=45
key=D#5
lovel=0
offset=1930
sample=Flute_staccato_PP_D#5_RR1.opus
</region>

<region>
end=22009
hivel=45
key=D#6
lovel=0
offset=1911
sample=Flute_staccato_PP_D#6_RR1.opus
</region>

<region>
hivel=45
key=D4
lovel=0
offset=1167
sample=Flute_staccato_PP_D4_RR1.opus
</region>

<region>
hivel=45
key=D5
lovel=0
offset=171
sample=Flute_staccato_PP_D5_RR1.opus
</region>

<region>
hivel=45
key=D6
lovel=0
offset=3489
sample=Flute_staccato_PP_D6_RR1.opus
</region>

<region>
hivel=45
key=E4
lovel=0
offset=383
sample=Flute_staccato_PP_E4_RR1.opus
</region>

<region>
hivel=45
key=E5
lovel=0
offset=2390
sample=Flute_staccato_PP_E5_RR1.opus
</region>

<region>
end=22266
hivel=45
key=E6
lovel=0
offset=1959
sample=Flute_staccato_PP_E6_RR1.opus
</region>

<region>
hivel=45
key=F#4
lovel=0
offset=1097
sample=Flute_staccato_PP_F#4_RR1.opus
</region>

<region>
hivel=45
key=F#5
lovel=0
offset=3406
sample=Flute_staccato_PP_F#5_RR1.opus
</region>

<region>
hivel=45
key=F#6
lovel=0
offset=2396
sample=Flute_staccato_PP_F#6_RR1.opus
</region>

<region>
hivel=45
key=F4
lovel=0
offset=1467
sample=Flute_staccato_PP_F4_RR1.opus
</region>

<region>
end=13230
hivel=45
key=F5
lovel=0
offset=1516
sample=Flute_staccato_PP_F5_RR1.opus
</region>

<region>
hivel=45
key=F6
lovel=0
offset=1916
sample=Flute_staccato_PP_F6_RR1.opus
</region>

<region>
end=15485
hivel=45
key=G#4
lovel=0
offset=680
sample=Flute_staccato_PP_G#4_RR1.opus
</region>

<region>
hivel=45
key=G#5
lovel=0
offset=1110
sample=Flute_staccato_PP_G#5_RR1.opus
</region>

<region>
hivel=45
key=G#6
lovel=0
offset=3432
sample=Flute_staccato_PP_G#6_RR1.opus
</region>

<region>
end=13211
hivel=45
key=G4
lovel=0
offset=1001
sample=Flute_staccato_PP_G4_RR1.opus
</region>

<region>
hivel=45
key=G5
lovel=0
offset=1430
sample=Flute_staccato_PP_G5_RR1.opus
</region>

<region>
hivel=45
key=G6
lovel=0
offset=4276
sample=Flute_staccato_PP_G6_RR1.opus
</region>
</group>

<group>
group_label=RR2
seq_length=4
seq_position=2

<region>
end=16731
hivel=127
key=A#4
lovel=91
offset=2805
sample=Flute_staccato_FF_A#4_RR2.opus
</region>

<region>
hivel=127
key=A#5
lovel=91
offset=966
sample=Flute_staccato_FF_A#5_RR2.opus
</region>

<region>
end=18756
hivel=127
key=A#6
lovel=91
offset=1265
sample=Flute_staccato_FF_A#6_RR2.opus
</region>

<region>
hivel=127
key=A4
lovel=91
offset=1601
sample=Flute_staccato_FF_A4_RR2.opus
</region>

<region>
end=28737
hivel=127
key=A5
lovel=91
offset=12828
sample=Flute_staccato_FF_A5_RR2.opus
</region>

<region>
hivel=127
key=A6
lovel=91
offset=1018
sample=Flute_staccato_FF_A6_RR2.opus
</region>

<region>
hivel=127
key=B4
lovel=91
offset=1028
sample=Flute_staccato_FF_B4_RR2.opus
</region>

<region>
hivel=127
key=B5
lovel=91
offset=823
sample=Flute_staccato_FF_B5_RR2.opus
</region>

<region>
hivel=127
key=B6
lovel=91
offset=5770
sample=Flute_staccato_FF_B6_RR2.opus
</region>

<region>
hivel=127
key=C#4
lovel=91
sample=Flute_staccato_FF_C#4_RR2.opus
</region>

<region>
hivel=127
key=C#5
lovel=91
offset=1476
sample=Flute_staccato_FF_C#5_RR2.opus
</region>

<region>
hivel=127
key=C#6
lovel=91
offset=537
sample=Flute_staccato_FF_C#6_RR2.opus
</region>

<region>
hivel=127
key=C4
lovel=91
offset=1077
sample=Flute_staccato_FF_C4_RR2.opus
</region>

<region>
end=16063
hivel=127
key=C5
lovel=91
offset=2443
sample=Flute_staccato_FF_C5_RR2.opus
</region>

<region>
end=17763
hivel=127
key=C6
lovel=91
offset=746
sample=Flute_staccato_FF_C6_RR2.opus
</region>

<region>
hivel=127
key=c7
lovel=91
offset=5781
sample=Flute_staccato_FF_C7_RR2.opus
</region>

<region>
hivel=127
key=D#4
lovel=91
sample=Flute_staccato_FF_D#4_RR2.opus
</region>

<region>
hivel=127
key=D#5
lovel=91
offset=4688
sample=Flute_staccato_FF_D#5_RR2.opus
</region>

<region>
hivel=127
key=D#6
lovel=91
offset=847
sample=Flute_staccato_FF_D#6_RR2.opus
</region>

<region>
hivel=127
key=D4
lovel=91
sample=Flute_staccato_FF_D4_RR2.opus
</region>

<region>
end=16689
hivel=127
key=D5
lovel=91
offset=2835
sample=Flute_staccato_FF_D5_RR2.opus
</region>

<region>
end=15734
hivel=127
key=D6
lovel=91
offset=848
sample=Flute_staccato_FF_D6_RR2.opus
</region>

<region>
hivel=127
key=E4
lovel=91
offset=1021
sample=Flute_staccato_FF_E4_RR2.opus
</region>

<region>
hivel=127
key=E5
lovel=91
offset=4104
sample=Flute_staccato_FF_E5_RR2.opus
</region>

<region>
hivel=127
key=E6
lovel=91
offset=713
sample=Flute_staccato_FF_E6_RR2.opus
</region>

<region>
hivel=127
key=F#4
lovel=91
offset=1414
sample=Flute_staccato_FF_F#4_RR2.opus
</region>

<region>
end=12625
hivel=127
key=F#5
lovel=91
offset=1040
sample=Flute_staccato_FF_F#5_RR2.opus
</region>

<region>
hivel=127
key=F#6
lovel=91
offset=1016
sample=Flute_staccato_FF_F#6_RR2.opus
</region>

<region>
hivel=127
key=F4
lovel=91
offset=1633
sample=Flute_staccato_FF_F4_RR2.opus
</region>

<region>
end=17751
hivel=127
key=F5
lovel=91
offset=2319
sample=Flute_staccato_FF_F5_RR2.opus
</region>

<region>
hivel=127
key=F6
lovel=91
offset=1070
sample=Flute_staccato_FF_F6_RR2.opus
</region>

<region>
end=17241
hivel=127
key=G#4
lovel=91
offset=3098
sample=Flute_staccato_FF_G#4_RR2.opus
</region>

<region>
hivel=127
key=G#5
lovel=91
offset=715
sample=Flute_staccato_FF_G#5_RR2.opus
</region>

<region>
end=20177
hivel=127
key=G#6
lovel=91
offset=1345
sample=Flute_staccato_FF_G#6_RR2.opus
</region>

<region>
hivel=127
key=G4
lovel=91
offset=2300
sample=Flute_staccato_FF_G4_RR2.opus
</region>

<region>
hivel=127
key=G5
lovel=91
offset=590
sample=Flute_staccato_FF_G5_RR2.opus
</region>

<region>
hivel=127
key=G6
lovel=91
offset=1289
sample=Flute_staccato_FF_G6_RR2.opus
tune=-46
</region>

<region>
hivel=90
key=A#4
lovel=46
offset=2388
sample=Flute_staccato_MF_A#4_RR2.opus
volume=-6.0
</region>

<region>
hivel=90
key=A#5
lovel=46
offset=867
sample=Flute_staccato_MF_A#5_RR2.opus
volume=-6.0
</region>

<region>
hivel=90
key=A#6
lovel=46
offset=1116
sample=Flute_staccato_MF_A#6_RR2.opus
volume=-6.0
</region>

<region>
hivel=90
key=A4
lovel=46
offset=2477
sample=Flute_staccato_MF_A4_RR2.opus
volume=-6.0
</region>

<region>
end=14718
hivel=90
key=A5
lovel=46
offset=450
sample=Flute_staccato_MF_A5_RR2.opus
volume=-6.0
</region>

<region>
hivel=90
key=A6
lovel=46
offset=1086
sample=Flute_staccato_MF_A6_RR2.opus
volume=-6.0
</region>

<region>
hivel=90
key=B4
lovel=46
offset=974
sample=Flute_staccato_MF_B4_RR2.opus
volume=-6.0
</region>

<region>
end=19211
hivel=90
key=B5
lovel=46
offset=427
sample=Flute_staccato_MF_B5_RR2.opus
volume=-6.0
</region>

<region>
end=19809
hivel=90
key=B6
lovel=46
offset=1411
sample=Flute_staccato_MF_B6_RR2.opus
volume=-6.0
</region>

<region>
hivel=90
key=C#4
lovel=46
offset=4830
sample=Flute_staccato_MF_C#4_RR2.opus
volume=-6.0
</region>

<region>
hivel=90
key=C#5
lovel=46
offset=1098
sample=Flute_staccato_MF_C#5_RR2.opus
volume=-6.0
</region>

<region>
end=20168
hivel=90
key=C#6
lovel=46
offset=2833
sample=Flute_staccato_MF_C#6_RR2.opus
volume=-6.0
</region>

<region>
end=18742
hivel=90
key=C4
lovel=46
offset=1044
sample=Flute_staccato_MF_C4_RR2.opus
volume=-6.0
</region>

<region>
hivel=90
key=C5
lovel=46
offset=897
sample=Flute_staccato_MF_C5_RR2.opus
volume=-6.0
</region>

<region>
end=20219
hivel=90
key=C6
lovel=46
offset=901
sample=Flute_staccato_MF_C6_RR2.opus
volume=-6.0
</region>

<region>
end=19077
hivel=90
key=c7
lovel=46
offset=728
sample=Flute_staccato_MF_C7_RR2.opus
volume=-6.0
</region>

<region>
hivel=90
key=D#4
lovel=46
offset=12007
sample=Flute_staccato_MF_D#4_RR2.opus
volume=-6.0
</region>

<region>
hivel=90
key=D#5
lovel=46
offset=5512
sample=Flute_staccato_MF_D#5_RR2.opus
volume=-6.0
</region>

<region>
hivel=90
key=D#6
lovel=46
offset=930
sample=Flute_staccato_MF_D#6_RR2.opus
volume=-6.0
</region>

<region>
hivel=90
key=D4
lovel=46
offset=2455
sample=Flute_staccato_MF_D4_RR2.opus
volume=-6.0
</region>

<region>
hivel=90
key=D5
lovel=46
offset=2882
sample=Flute_staccato_MF_D5_RR2.opus
volume=-6.0
</region>

<region>
end=36295
hivel=90
key=D6
lovel=46
offset=12365
sample=Flute_staccato_MF_D6_RR2.opus
volume=-6.0
</region>

<region>
end=19167
hivel=90
key=E4
lovel=46
offset=2630
sample=Flute_staccato_MF_E4_RR2.opus
volume=-6.0
</region>

<region>
end=14818
hivel=90
key=E5
lovel=46
offset=1005
sample=Flute_staccato_MF_E5_RR2.opus
volume=-6.0
</region>

<region>
hivel=90
key=E6
lovel=46
offset=997
sample=Flute_staccato_MF_E6_RR2.opus
volume=-6.0
</region>

<region>
hivel=90
key=F#4
lovel=46
offset=2267
sample=Flute_staccato_MF_F#4_RR2.opus
volume=-6.0
</region>

<region>
end=25255
hivel=90
key=F#5
lovel=46
offset=8149
sample=Flute_staccato_MF_F#5_RR2.opus
volume=-6.0
</region>

<region>
end=18969
hivel=90
key=F#6
lovel=46
offset=720
sample=Flute_staccato_MF_F#6_RR2.opus
volume=-6.0
</region>

<region>
hivel=90
key=F4
lovel=46
offset=2802
sample=Flute_staccato_MF_F4_RR2.opus
volume=-6.0
</region>

<region>
hivel=90
key=F5
lovel=46
offset=1659
sample=Flute_staccato_MF_F5_RR2.opus
volume=-6.0
</region>

<region>
end=18754
hivel=90
key=F6
lovel=46
offset=887
sample=Flute_staccato_MF_F6_RR2.opus
volume=-6.0
</region>

<region>
hivel=90
key=G#4
lovel=46
offset=1819
sample=Flute_staccato_MF_G#4_RR2.opus
volume=-6.0
</region>

<region>
hivel=90
key=G#5
lovel=46
offset=1251
sample=Flute_staccato_MF_G#5_RR2.opus
volume=-6.0
</region>

<region>
hivel=90
key=G#6
lovel=46
offset=892
sample=Flute_staccato_MF_G#6_RR2.opus
volume=-6.0
</region>

<region>
end=15291
hivel=90
key=G4
lovel=46
offset=1480
sample=Flute_staccato_MF_G4_RR2.opus
volume=-6.0
</region>

<region>
end=23920
hivel=90
key=G5
lovel=46
offset=8671
sample=Flute_staccato_MF_G5_RR2.opus
volume=-6.0
</region>

<region>
hivel=90
key=G6
lovel=46
offset=484
sample=Flute_staccato_MF_G6_RR2.opus
volume=-6.0
</region>

<region>
end=15694
hivel=45
key=A#4
lovel=0
offset=2927
sample=Flute_staccato_PP_A#4_RR2.opus
</region>

<region>
hivel=45
key=A#5
lovel=0
offset=989
sample=Flute_staccato_PP_A#5_RR2.opus
</region>

<region>
hivel=45
key=A#6
lovel=0
offset=1944
sample=Flute_staccato_PP_A#6_RR2.opus
</region>

<region>
hivel=45
key=A4
lovel=0
sample=Flute_staccato_PP_A4_RR2.opus
</region>

<region>
hivel=45
key=A5
lovel=0
offset=1723
sample=Flute_staccato_PP_A5_RR2.opus
</region>

<region>
hivel=45
key=A6
lovel=0
offset=1936
sample=Flute_staccato_PP_A6_RR2.opus
</region>

<region>
hivel=45
key=B4
lovel=0
sample=Flute_staccato_PP_B4_RR2.opus
</region>

<region>
hivel=45
key=B5
lovel=0
offset=1494
sample=Flute_staccato_PP_B5_RR2.opus
</region>

<region>
hivel=45
key=B6
lovel=0
offset=1228
sample=Flute_staccato_PP_B6_RR2.opus
</region>

<region>
hivel=45
key=C#4
lovel=0
sample=Flute_staccato_PP_C#4_RR2.opus
</region>

<region>
hivel=45
key=C#5
lovel=0
sample=Flute_staccato_PP_C#5_RR2.opus
</region>

<region>
hivel=45
key=C#6
lovel=0
offset=3614
sample=Flute_staccato_PP_C#6_RR2.opus
</region>

<region>
hivel=45
key=C4
lovel=0
offset=1362
sample=Flute_staccato_PP_C4_RR2.opus
</region>

<region>
hivel=45
key=C5
lovel=0
sample=Flute_staccato_PP_C5_RR2.opus
</region>

<region>
hivel=45
key=C6
lovel=0
offset=1140
sample=Flute_staccato_PP_C6_RR2.opus
</region>

<region>
end=17728
hivel=45
key=c7
lovel=0
offset=1262
sample=Flute_staccato_PP_C7_RR2.opus
</region>

<region>
hivel=45
key=D#4
lovel=0
sample=Flute_staccato_PP_D#4_RR2.opus
</region>

<region>
hivel=45
key=D#5
lovel=0
offset=4377
sample=Flute_staccato_PP_D#5_RR2.opus
</region>

<region>
hivel=45
key=D#6
lovel=0
offset=1237
sample=Flute_staccato_PP_D#6_RR2.opus
</region>

<region>
hivel=45
key=D4
lovel=0
sample=Flute_staccato_PP_D4_RR2.opus
</region>

<region>
hivel=45
key=D5
lovel=0
sample=Flute_staccato_PP_D5_RR2.opus
</region>

<region>
hivel=45
key=D6
lovel=0
offset=3103
sample=Flute_staccato_PP_D6_RR2.opus
</region>

<region>
hivel=45
key=E4
lovel=0
sample=Flute_staccato_PP_E4_RR2.opus
</region>

<region>
hivel=45
key=E5
lovel=0
sample=Flute_staccato_PP_E5_RR2.opus
</region>

<region>
end=36907
hivel=45
key=E6
lovel=0
offset=10637
sample=Flute_staccato_PP_E6_RR2.opus
</region>

<region>
hivel=45
key=F#4
lovel=0
sample=Flute_staccato_PP_F#4_RR2.opus
</region>

<region>
hivel=45
key=F#5
lovel=0
sample=Flute_staccato_PP_F#5_RR2.opus
</region>

<region>
hivel=45
key=F#6
lovel=0
offset=2099
sample=Flute_staccato_PP_F#6_RR2.opus
</region>

<region>
hivel=45
key=F4
lovel=0
sample=Flute_staccato_PP_F4_RR2.opus
</region>

<region>
hivel=45
key=F5
lovel=0
offset=13442
sample=Flute_staccato_PP_F5_RR2.opus
</region>

<region>
hivel=45
key=F6
lovel=0
sample=Flute_staccato_PP_F6_RR2.opus
</region>

<region>
hivel=45
key=G#4
lovel=0
sample=Flute_staccato_PP_G#4_RR2.opus
</region>

<region>
hivel=45
key=G#5
lovel=0
offset=1051
sample=Flute_staccato_PP_G#5_RR2.opus
</region>

<region>
end=14151
hivel=45
key=G#6
lovel=0
offset=848
sample=Flute_staccato_PP_G#6_RR2.opus
</region>

<region>
hivel=45
key=G4
lovel=0
sample=Flute_staccato_PP_G4_RR2.opus
</region>

<region>
hivel=45
key=G5
lovel=0
offset=1698
sample=Flute_staccato_PP_G5_RR2.opus
</region>

<region>
hivel=45
key=G6
lovel=0
offset=2272
sample=Flute_staccato_PP_G6_RR2.opus
</region>
</group>

<group>
group_label=RR3
seq_length=4
seq_position=3

<region>
hivel=127
key=A#4
lovel=91
offset=3393
sample=Flute_staccato_FF_A#4_RR3.opus
</region>

<region>
hivel=127
key=A#5
lovel=91
offset=963
sample=Flute_staccato_FF_A#5_RR3.opus
</region>

<region>
hivel=127
key=A#6
lovel=91
offset=1182
sample=Flute_staccato_FF_A#6_RR3.opus
</region>

<region>
hivel=127
key=A4
lovel=91
offset=4711
sample=Flute_staccato_FF_A4_RR3.opus
</region>

<region>
hivel=127
key=A5
lovel=91
offset=1123
sample=Flute_staccato_FF_A5_RR3.opus
</region>

<region>
hivel=127
key=A6
lovel=91
offset=1407
sample=Flute_staccato_FF_A6_RR3.opus
</region>

<region>
hivel=127
key=B4
lovel=91
offset=1142
sample=Flute_staccato_FF_B4_RR3.opus
</region>

<region>
hivel=127
key=B5
lovel=91
offset=656
sample=Flute_staccato_FF_B5_RR3.opus
</region>

<region>
hivel=127
key=B6
lovel=91
offset=4877
sample=Flute_staccato_FF_B6_RR3.opus
</region>

<region>
hivel=127
key=C#4
lovel=91
offset=2126
sample=Flute_staccato_FF_C#4_RR3.opus
</region>

<region>
hivel=127
key=C#5
lovel=91
offset=3026
sample=Flute_staccato_FF_C#5_RR3.opus
</region>

<region>
hivel=127
key=C#6
lovel=91
offset=679
sample=Flute_staccato_FF_C#6_RR3.opus
</region>

<region>
hivel=127
key=C4
lovel=91
offset=3213
sample=Flute_staccato_FF_C4_RR3.opus
</region>

<region>
hivel=127
key=C5
lovel=91
offset=2020
sample=Flute_staccato_FF_C5_RR3.opus
</region>

<region>
hivel=127
key=C6
lovel=91
offset=749
sample=Flute_staccato_FF_C6_RR3.opus
</region>

<region>
hivel=127
key=c7
lovel=91
offset=2412
sample=Flute_staccato_FF_C7_RR3.opus
</region>

<region>
hivel=127
key=D#4
lovel=91
offset=2122
sample=Flute_staccato_FF_D#4_RR3.opus
</region>

<region>
hivel=127
key=D#5
lovel=91
offset=5575
sample=Flute_staccato_FF_D#5_RR3.opus
</region>

<region>
hivel=127
key=D#6
lovel=91
offset=780
sample=Flute_staccato_FF_D#6_RR3.opus
</region>

<region>
hivel=127
key=D4
lovel=91
offset=3671
sample=Flute_staccato_FF_D4_RR3.opus
</region>

<region>
hivel=127
key=D5
lovel=91
offset=3285
sample=Flute_staccato_FF_D5_RR3.opus
</region>

<region>
hivel=127
key=D6
lovel=91
offset=751
sample=Flute_staccato_FF_D6_RR3.opus
</region>

<region>
hivel=127
key=E4
lovel=91
offset=3848
sample=Flute_staccato_FF_E4_RR3.opus
</region>

<region>
hivel=127
key=E5
lovel=91
offset=1600
sample=Flute_staccato_FF_E5_RR3.opus
</region>

<region>
hivel=127
key=E6
lovel=91
offset=8377
sample=Flute_staccato_FF_E6_RR3.opus
</region>

<region>
hivel=127
key=F#4
lovel=91
offset=3214
sample=Flute_staccato_FF_F#4_RR3.opus
</region>

<region>
hivel=127
key=F#5
lovel=91
offset=6608
sample=Flute_staccato_FF_F#5_RR3.opus
</region>

<region>
hivel=127
key=F#6
lovel=91
offset=989
sample=Flute_staccato_FF_F#6_RR3.opus
</region>

<region>
hivel=127
key=F4
lovel=91
offset=2603
sample=Flute_staccato_FF_F4_RR3.opus
</region>

<region>
hivel=127
key=F5
lovel=91
offset=1989
sample=Flute_staccato_FF_F5_RR3.opus
</region>

<region>
hivel=127
key=F6
lovel=91
offset=791
sample=Flute_staccato_FF_F6_RR3.opus
</region>

<region>
hivel=127
key=G#4
lovel=91
offset=1845
sample=Flute_staccato_FF_G#4_RR3.opus
</region>

<region>
hivel=127
key=G#5
lovel=91
offset=1130
sample=Flute_staccato_FF_G#5_RR3.opus
</region>

<region>
hivel=127
key=G#6
lovel=91
offset=12404
sample=Flute_staccato_FF_G#6_RR3.opus
</region>

<region>
hivel=127
key=G4
lovel=91
offset=3217
sample=Flute_staccato_FF_G4_RR3.opus
</region>

<region>
hivel=127
key=G5
lovel=91
offset=1219
sample=Flute_staccato_FF_G5_RR3.opus
</region>

<region>
hivel=127
key=G6
lovel=91
offset=824
sample=Flute_staccato_FF_G6_RR3.opus
</region>

<region>
hivel=90
key=A#4
lovel=46
offset=3880
sample=Flute_staccato_MF_A#4_RR3.opus
volume=-6.0
</region>

<region>
hivel=90
key=A#5
lovel=46
offset=1195
sample=Flute_staccato_MF_A#5_RR3.opus
volume=-6.0
</region>

<region>
hivel=90
key=A#6
lovel=46
offset=1730
sample=Flute_staccato_MF_A#6_RR3.opus
volume=-6.0
</region>

<region>
hivel=90
key=A4
lovel=46
offset=1396
sample=Flute_staccato_MF_A4_RR3.opus
volume=-6.0
</region>

<region>
hivel=90
key=A5
lovel=46
offset=973
sample=Flute_staccato_MF_A5_RR3.opus
volume=-6.0
</region>

<region>
hivel=90
key=A6
lovel=46
offset=762
sample=Flute_staccato_MF_A6_RR3.opus
volume=-6.0
</region>

<region>
hivel=90
key=B4
lovel=46
offset=1774
sample=Flute_staccato_MF_B4_RR3.opus
volume=-6.0
</region>

<region>
hivel=90
key=B5
lovel=46
offset=563
sample=Flute_staccato_MF_B5_RR3.opus
volume=-6.0
</region>

<region>
hivel=90
key=B6
lovel=46
offset=14971
sample=Flute_staccato_MF_B6_RR3.opus
volume=-6.0
</region>

<region>
hivel=90
key=C#4
lovel=46
offset=4051
sample=Flute_staccato_MF_C#4_RR3.opus
volume=-6.0
</region>

<region>
hivel=90
key=C#5
lovel=46
offset=1595
sample=Flute_staccato_MF_C#5_RR3.opus
volume=-6.0
</region>

<region>
hivel=90
key=C#6
lovel=46
offset=11672
sample=Flute_staccato_MF_C#6_RR3.opus
volume=-6.0
</region>

<region>
hivel=90
key=C4
lovel=46
offset=4076
sample=Flute_staccato_MF_C4_RR3.opus
volume=-6.0
</region>

<region>
hivel=90
key=C5
lovel=46
offset=1372
sample=Flute_staccato_MF_C5_RR3.opus
volume=-6.0
</region>

<region>
hivel=90
key=C6
lovel=46
offset=882
sample=Flute_staccato_MF_C6_RR3.opus
volume=-6.0
</region>

<region>
hivel=90
key=c7
lovel=46
offset=1743
sample=Flute_staccato_MF_C7_RR3.opus
volume=-6.0
</region>

<region>
hivel=90
key=D#4
lovel=46
offset=3735
sample=Flute_staccato_MF_D#4_RR3.opus
volume=-6.0
</region>

<region>
hivel=90
key=D#5
lovel=46
offset=3434
sample=Flute_staccato_MF_D#5_RR3.opus
volume=-6.0
</region>

<region>
hikey=D#6
hivel=90
lokey=D#6
lovel=46
offset=691
pitch_keycenter=E6
sample=Flute_staccato_MF_D#6_RR3.opus
volume=-6.0
</region>

<region>
hivel=90
key=D4
lovel=46
offset=3358
sample=Flute_staccato_MF_D4_RR3.opus
volume=-6.0
</region>

<region>
hivel=90
key=D5
lovel=46
offset=3458
sample=Flute_staccato_MF_D5_RR3.opus
volume=-6.0
</region>

<region>
hivel=90
key=D6
lovel=46
offset=553
sample=Flute_staccato_MF_D6_RR3.opus
volume=-6.0
</region>

<region>
hivel=90
key=E4
lovel=46
offset=2309
sample=Flute_staccato_MF_E4_RR3.opus
volume=-6.0
</region>

<region>
hivel=90
key=E5
lovel=46
offset=2698
sample=Flute_staccato_MF_E5_RR3.opus
volume=-6.0
</region>

<region>
hivel=90
key=E6
lovel=46
offset=895
sample=Flute_staccato_MF_E6_RR3.opus
volume=-6.0
</region>

<region>
hivel=90
key=F#4
lovel=46
offset=2036
sample=Flute_staccato_MF_F#4_RR3.opus
volume=-6.0
</region>

<region>
hivel=90
key=F#5
lovel=46
offset=13673
sample=Flute_staccato_MF_F#5_RR3.opus
volume=-6.0
</region>

<region>
hivel=90
key=F#6
lovel=46
offset=457
sample=Flute_staccato_MF_F#6_RR3.opus
volume=-6.0
</region>

<region>
hivel=90
key=F4
lovel=46
offset=3023
sample=Flute_staccato_MF_F4_RR3.opus
volume=-6.0
</region>

<region>
hivel=90
key=F5
lovel=46
offset=1660
sample=Flute_staccato_MF_F5_RR3.opus
volume=-6.0
</region>

<region>
hivel=90
key=F6
lovel=46
offset=1025
sample=Flute_staccato_MF_F6_RR3.opus
volume=-6.0
</region>

<region>
hivel=90
key=G#4
lovel=46
offset=2434
sample=Flute_staccato_MF_G#4_RR3.opus
volume=-6.0
</region>

<region>
hivel=90
key=G#5
lovel=46
offset=743
sample=Flute_staccato_MF_G#5_RR3.opus
volume=-6.0
</region>

<region>
hivel=90
key=G#6
lovel=46
offset=753
sample=Flute_staccato_MF_G#6_RR3.opus
volume=-6.0
</region>

<region>
hivel=90
key=G4
lovel=46
offset=1677
sample=Flute_staccato_MF_G4_RR3.opus
volume=-6.0
</region>

<region>
hivel=90
key=G5
lovel=46
offset=1143
sample=Flute_staccato_MF_G5_RR3.opus
volume=-6.0
</region>

<region>
hivel=90
key=G6
lovel=46
offset=1183
sample=Flute_staccato_MF_G6_RR3.opus
volume=-6.0
</region>

<region>
hivel=45
key=A#4
lovel=0
offset=960
sample=Flute_staccato_PP_A#4_RR3.opus
</region>

<region>
hivel=45
key=A#5
lovel=0
offset=2769
sample=Flute_staccato_PP_A#5_RR3.opus
</region>

<region>
hivel=45
key=A#6
lovel=0
offset=1348
sample=Flute_staccato_PP_A#6_RR3.opus
</region>

<region>
hivel=45
key=A4
lovel=0
offset=2569
sample=Flute_staccato_PP_A4_RR3.opus
</region>

<region>
hivel=45
key=A5
lovel=0
offset=1354
sample=Flute_staccato_PP_A5_RR3.opus
</region>

<region>
hivel=45
key=A6
lovel=0
offset=9229
sample=Flute_staccato_PP_A6_RR3.opus
</region>

<region>
hivel=45
key=B4
lovel=0
offset=1845
sample=Flute_staccato_PP_B4_RR3.opus
</region>

<region>
hivel=45
key=B5
lovel=0
offset=1416
sample=Flute_staccato_PP_B5_RR3.opus
</region>

<region>
hivel=45
key=B6
lovel=0
sample=Flute_staccato_PP_B6_RR3.opus
</region>

<region>
hivel=45
key=C#4
lovel=0
offset=2146
sample=Flute_staccato_PP_C#4_RR3.opus
</region>

<region>
hivel=45
key=C#5
lovel=0
offset=11285
sample=Flute_staccato_PP_C#5_RR3.opus
</region>

<region>
hivel=45
key=C#6
lovel=0
offset=2646
sample=Flute_staccato_PP_C#6_RR3.opus
</region>

<region>
hivel=45
key=C4
lovel=0
offset=2481
sample=Flute_staccato_PP_C4_RR3.opus
</region>

<region>
hivel=45
key=C5
lovel=0
offset=1687
sample=Flute_staccato_PP_C5_RR3.opus
</region>

<region>
hivel=45
key=C6
lovel=0
offset=1537
sample=Flute_staccato_PP_C6_RR3.opus
</region>

<region>
hivel=45
key=c7
lovel=0
offset=9861
sample=Flute_staccato_PP_C7_RR3.opus
</region>

<region>
hivel=45
key=D#4
lovel=0
offset=1531
sample=Flute_staccato_PP_D#4_RR3.opus
</region>

<region>
hivel=45
key=D#5
lovel=0
offset=1904
sample=Flute_staccato_PP_D#5_RR3.opus
</region>

<region>
hivel=45
key=D#6
lovel=0
offset=819
sample=Flute_staccato_PP_D#6_RR3.opus
</region>

<region>
hivel=45
key=D4
lovel=0
offset=2137
sample=Flute_staccato_PP_D4_RR3.opus
</region>

<region>
hivel=45
key=D5
lovel=0
offset=1694
sample=Flute_staccato_PP_D5_RR3.opus
</region>

<region>
hivel=45
key=D6
lovel=0
offset=4300
sample=Flute_staccato_PP_D6_RR3.opus
</region>

<region>
hivel=45
key=E4
lovel=0
offset=974
sample=Flute_staccato_PP_E4_RR3.opus
</region>

<region>
hivel=45
key=E5
lovel=0
offset=2759
sample=Flute_staccato_PP_E5_RR3.opus
</region>

<region>
hivel=45
key=E6
lovel=0
offset=9907
sample=Flute_staccato_PP_E6_RR3.opus
</region>

<region>
hivel=45
key=F#4
lovel=0
offset=2337
sample=Flute_staccato_PP_F#4_RR3.opus
</region>

<region>
hivel=45
key=F#5
lovel=0
offset=2445
sample=Flute_staccato_PP_F#5_RR3.opus
</region>

<region>
hivel=45
key=F#6
lovel=0
offset=1938
sample=Flute_staccato_PP_F#6_RR3.opus
</region>

<region>
hivel=45
key=F4
lovel=0
offset=3150
sample=Flute_staccato_PP_F4_RR3.opus
</region>

<region>
hivel=45
key=F5
lovel=0
offset=1946
sample=Flute_staccato_PP_F5_RR3.opus
</region>

<region>
hivel=45
key=F6
lovel=0
offset=2734
sample=Flute_staccato_PP_F6_RR3.opus
</region>

<region>
hivel=45
key=G#4
lovel=0
offset=1141
sample=Flute_staccato_PP_G#4_RR3.opus
</region>

<region>
hivel=45
key=G#5
lovel=0
offset=1772
sample=Flute_staccato_PP_G#5_RR3.opus
</region>

<region>
hivel=45
key=G#6
lovel=0
offset=351
sample=Flute_staccato_PP_G#6_RR3.opus
</region>

<region>
hivel=45
key=G4
lovel=0
offset=2129
sample=Flute_staccato_PP_G4_RR3.opus
</region>

<region>
hivel=45
key=G5
lovel=0
offset=1653
sample=Flute_staccato_PP_G5_RR3.opus
</region>

<region>
hivel=45
key=G6
lovel=0
offset=3022
sample=Flute_staccato_PP_G6_RR3.opus
</region>
</group>

<group>
group_label=RR4
seq_length=4
seq_position=4

<region>
hivel=127
key=A#4
lovel=91
offset=1280
sample=Flute_staccato_FF_A#4_RR4.opus
</region>

<region>
hivel=127
key=A#5
lovel=91
offset=840
sample=Flute_staccato_FF_A#5_RR4.opus
</region>

<region>
hivel=127
key=A#6
lovel=91
offset=1172
sample=Flute_staccato_FF_A#6_RR4.opus
</region>

<region>
hivel=127
key=A4
lovel=91
offset=2474
sample=Flute_staccato_FF_A4_RR4.opus
</region>

<region>
hivel=127
key=A5
lovel=91
offset=1032
sample=Flute_staccato_FF_A5_RR4.opus
</region>

<region>
hivel=127
key=A6
lovel=91
offset=4130
sample=Flute_staccato_FF_A6_RR4.opus
</region>

<region>
hivel=127
key=B4
lovel=91
offset=1364
sample=Flute_staccato_FF_B4_RR4.opus
</region>

<region>
hivel=127
key=B5
lovel=91
offset=892
sample=Flute_staccato_FF_B5_RR4.opus
</region>

<region>
hivel=127
key=B6
lovel=91
offset=5004
sample=Flute_staccato_FF_B6_RR4.opus
</region>

<region>
hivel=127
key=C#4
lovel=91
offset=1970
sample=Flute_staccato_FF_C#4_RR4.opus
</region>

<region>
hivel=127
key=C#5
lovel=91
offset=670
sample=Flute_staccato_FF_C#5_RR4.opus
</region>

<region>
hivel=127
key=C#6
lovel=91
offset=412
sample=Flute_staccato_FF_C#6_RR4.opus
</region>

<region>
hivel=127
key=C4
lovel=91
offset=8821
sample=Flute_staccato_FF_C4_RR4.opus
</region>

<region>
hivel=127
key=C5
lovel=91
offset=2236
sample=Flute_staccato_FF_C5_RR4.opus
</region>

<region>
hivel=127
key=C6
lovel=91
offset=467
sample=Flute_staccato_FF_C6_RR4.opus
</region>

<region>
hivel=127
key=c7
lovel=91
offset=1100
sample=Flute_staccato_FF_C7_RR4.opus
</region>

<region>
hivel=127
key=D#4
lovel=91
offset=2600
sample=Flute_staccato_FF_D#4_RR4.opus
</region>

<region>
hivel=127
key=D#5
lovel=91
offset=5778
sample=Flute_staccato_FF_D#5_RR4.opus
</region>

<region>
hikey=D#6
hivel=127
lokey=D#6
lovel=91
offset=702
pitch_keycenter=E6
sample=Flute_staccato_FF_D#6_RR4.opus
</region>

<region>
hivel=127
key=D4
lovel=91
offset=2321
sample=Flute_staccato_FF_D4_RR4.opus
</region>

<region>
hivel=127
key=D5
lovel=91
offset=2715
sample=Flute_staccato_FF_D5_RR4.opus
</region>

<region>
hivel=127
key=D6
lovel=91
offset=646
sample=Flute_staccato_FF_D6_RR4.opus
</region>

<region>
hivel=127
key=E4
lovel=91
offset=14306
sample=Flute_staccato_FF_E4_RR4.opus
</region>

<region>
hivel=127
key=E5
lovel=91
offset=9477
sample=Flute_staccato_FF_E5_RR4.opus
</region>

<region>
hivel=127
key=E6
lovel=91
offset=10839
sample=Flute_staccato_FF_E6_RR4.opus
</region>

<region>
hivel=127
key=F#4
lovel=91
offset=2642
sample=Flute_staccato_FF_F#4_RR4.opus
</region>

<region>
hivel=127
key=F#5
lovel=91
offset=1958
sample=Flute_staccato_FF_F#5_RR4.opus
</region>

<region>
hivel=127
key=F#6
lovel=91
offset=1222
sample=Flute_staccato_FF_F#6_RR4.opus
</region>

<region>
hivel=127
key=F4
lovel=91
offset=2737
sample=Flute_staccato_FF_F4_RR4.opus
</region>

<region>
hivel=127
key=F5
lovel=91
offset=13002
sample=Flute_staccato_FF_F5_RR4.opus
</region>

<region>
hivel=127
key=F6
lovel=91
offset=881
sample=Flute_staccato_FF_F6_RR4.opus
</region>

<region>
hivel=127
key=G#4
lovel=91
offset=1727
sample=Flute_staccato_FF_G#4_RR4.opus
</region>

<region>
hivel=127
key=G#5
lovel=91
offset=1036
sample=Flute_staccato_FF_G#5_RR4.opus
</region>

<region>
hivel=127
key=G#6
lovel=91
offset=1537
sample=Flute_staccato_FF_G#6_RR4.opus
</region>

<region>
hivel=127
key=G4
lovel=91
offset=2226
sample=Flute_staccato_FF_G4_RR4.opus
</region>

<region>
hivel=127
key=G5
lovel=91
offset=857
sample=Flute_staccato_FF_G5_RR4.opus
</region>

<region>
hivel=127
key=G6
lovel=91
offset=525
sample=Flute_staccato_FF_G6_RR4.opus
</region>

<region>
hivel=90
key=A#4
lovel=46
offset=2479
sample=Flute_staccato_MF_A#4_RR4.opus
volume=-6.0
</region>

<region>
hivel=90
key=A#5
lovel=46
offset=996
sample=Flute_staccato_MF_A#5_RR4.opus
volume=-6.0
</region>

<region>
hivel=90
key=A#6
lovel=46
offset=1265
sample=Flute_staccato_MF_A#6_RR4.opus
volume=-6.0
</region>

<region>
hivel=90
key=A4
lovel=46
offset=2820
sample=Flute_staccato_MF_A4_RR4.opus
volume=-6.0
</region>

<region>
hivel=90
key=A5
lovel=46
offset=896
sample=Flute_staccato_MF_A5_RR4.opus
volume=-6.0
</region>

<region>
hivel=90
key=A6
lovel=46
offset=562
sample=Flute_staccato_MF_A6_RR4.opus
volume=-6.0
</region>

<region>
hivel=90
key=B4
lovel=46
offset=1674
sample=Flute_staccato_MF_B4_RR4.opus
volume=-6.0
</region>

<region>
hivel=90
key=B5
lovel=46
offset=624
sample=Flute_staccato_MF_B5_RR4.opus
volume=-6.0
</region>

<region>
hivel=90
key=B6
lovel=46
offset=1514
sample=Flute_staccato_MF_B6_RR4.opus
volume=-6.0
</region>

<region>
hivel=90
key=C#4
lovel=46
offset=3277
sample=Flute_staccato_MF_C#4_RR4.opus
volume=-6.0
</region>

<region>
hivel=90
key=C#5
lovel=46
offset=1009
sample=Flute_staccato_MF_C#5_RR4.opus
volume=-6.0
</region>

<region>
hivel=90
key=C#6
lovel=46
offset=463
sample=Flute_staccato_MF_C#6_RR4.opus
volume=-6.0
</region>

<region>
hivel=90
key=C4
lovel=46
offset=3925
sample=Flute_staccato_MF_C4_RR4.opus
volume=-6.0
</region>

<region>
hivel=90
key=C5
lovel=46
offset=1440
sample=Flute_staccato_MF_C5_RR4.opus
volume=-6.0
</region>

<region>
hivel=90
key=C6
lovel=46
offset=707
sample=Flute_staccato_MF_C6_RR4.opus
volume=-6.0
</region>

<region>
hivel=90
key=c7
lovel=46
offset=1631
sample=Flute_staccato_MF_C7_RR4.opus
volume=-6.0
</region>

<region>
hivel=90
key=D#4
lovel=46
offset=7730
sample=Flute_staccato_MF_D#4_RR4.opus
volume=-6.0
</region>

<region>
hivel=90
key=D#5
lovel=46
offset=3435
sample=Flute_staccato_MF_D#5_RR4.opus
volume=-6.0
</region>

<region>
hikey=D#6
hivel=90
lokey=D#6
lovel=46
offset=586
pitch_keycenter=E6
sample=Flute_staccato_MF_D#6_RR4.opus
volume=-6.0
</region>

<region>
hivel=90
key=D4
lovel=46
offset=3539
sample=Flute_staccato_MF_D4_RR4.opus
volume=-6.0
</region>

<region>
hivel=90
key=D5
lovel=46
offset=1987
sample=Flute_staccato_MF_D5_RR4.opus
volume=-6.0
</region>

<region>
hivel=90
key=D6
lovel=46
offset=1101
sample=Flute_staccato_MF_D6_RR4.opus
volume=-6.0
</region>

<region>
hivel=90
key=E4
lovel=46
offset=2462
sample=Flute_staccato_MF_E4_RR4.opus
volume=-6.0
</region>

<region>
hivel=90
key=E5
lovel=46
offset=2279
sample=Flute_staccato_MF_E5_RR4.opus
volume=-6.0
</region>

<region>
hivel=90
key=E6
lovel=46
offset=960
sample=Flute_staccato_MF_E6_RR4.opus
volume=-6.0
</region>

<region>
hivel=90
key=F#4
lovel=46
offset=2442
sample=Flute_staccato_MF_F#4_RR4.opus
volume=-6.0
</region>

<region>
hivel=90
key=F#5
lovel=46
offset=11681
sample=Flute_staccato_MF_F#5_RR4.opus
volume=-6.0
</region>

<region>
hivel=90
key=F#6
lovel=46
offset=435
sample=Flute_staccato_MF_F#6_RR4.opus
volume=-6.0
</region>

<region>
hivel=90
key=F4
lovel=46
offset=2691
sample=Flute_staccato_MF_F4_RR4.opus
volume=-6.0
</region>

<region>
hivel=90
key=F5
lovel=46
offset=2330
sample=Flute_staccato_MF_F5_RR4.opus
volume=-6.0
</region>

<region>
hivel=90
key=F6
lovel=46
offset=791
sample=Flute_staccato_MF_F6_RR4.opus
volume=-6.0
</region>

<region>
hivel=90
key=G#4
lovel=46
offset=2253
sample=Flute_staccato_MF_G#4_RR4.opus
volume=-6.0
</region>

<region>
hivel=90
key=G#5
lovel=46
offset=1161
sample=Flute_staccato_MF_G#5_RR4.opus
volume=-6.0
</region>

<region>
hivel=90
key=G#6
lovel=46
offset=1322
sample=Flute_staccato_MF_G#6_RR4.opus
volume=-6.0
</region>

<region>
hivel=90
key=G4
lovel=46
offset=1724
sample=Flute_staccato_MF_G4_RR4.opus
volume=-6.0
</region>

<region>
hivel=90
key=G5
lovel=46
offset=11144
sample=Flute_staccato_MF_G5_RR4.opus
volume=-6.0
</region>

<region>
hivel=90
key=G6
lovel=46
offset=1141
sample=Flute_staccato_MF_G6_RR4.opus
volume=-6.0
</region>

<region>
hivel=45
key=A#4
lovel=0
offset=2705
sample=Flute_staccato_PP_A#4_RR4.opus
</region>

<region>
hivel=45
key=A#5
lovel=0
offset=1573
sample=Flute_staccato_PP_A#5_RR4.opus
</region>

<region>
hivel=45
key=A#6
lovel=0
offset=1145
sample=Flute_staccato_PP_A#6_RR4.opus
</region>

<region>
hivel=45
key=A4
lovel=0
offset=1911
sample=Flute_staccato_PP_A4_RR4.opus
</region>

<region>
hivel=45
key=A5
lovel=0
offset=1657
sample=Flute_staccato_PP_A5_RR4.opus
</region>

<region>
hivel=45
key=A6
lovel=0
offset=6909
sample=Flute_staccato_PP_A6_RR4.opus
</region>

<region>
hivel=45
key=B4
lovel=0
offset=1130
sample=Flute_staccato_PP_B4_RR4.opus
</region>

<region>
hivel=45
key=B5
lovel=0
offset=1017
sample=Flute_staccato_PP_B5_RR4.opus
</region>

<region>
hivel=45
key=B6
lovel=0
offset=1637
sample=Flute_staccato_PP_B6_RR4.opus
</region>

<region>
hivel=45
key=C#4
lovel=0
offset=13077
sample=Flute_staccato_PP_C#4_RR4.opus
</region>

<region>
hivel=45
key=C#5
lovel=0
offset=803
sample=Flute_staccato_PP_C#5_RR4.opus
</region>

<region>
hivel=45
key=C#6
lovel=0
offset=2135
sample=Flute_staccato_PP_C#6_RR4.opus
</region>

<region>
hivel=45
key=C4
lovel=0
offset=1530
sample=Flute_staccato_PP_C4_RR4.opus
</region>

<region>
hivel=45
key=C5
lovel=0
offset=2660
sample=Flute_staccato_PP_C5_RR4.opus
</region>

<region>
hivel=45
key=C6
lovel=0
offset=1729
sample=Flute_staccato_PP_C6_RR4.opus
</region>

<region>
hivel=45
key=c7
lovel=0
offset=2389
sample=Flute_staccato_PP_C7_RR4.opus
</region>

<region>
hivel=45
key=D#4
lovel=0
offset=2605
sample=Flute_staccato_PP_D#4_RR4.opus
</region>

<region>
hivel=45
key=D#5
lovel=0
offset=1974
sample=Flute_staccato_PP_D#5_RR4.opus
</region>

<region>
hivel=45
key=D#6
lovel=0
offset=1859
sample=Flute_staccato_PP_D#6_RR4.opus
</region>

<region>
hivel=45
key=D4
lovel=0
sample=Flute_staccato_PP_D4_RR4.opus
</region>

<region>
hivel=45
key=D5
lovel=0
offset=1954
sample=Flute_staccato_PP_D5_RR4.opus
</region>

<region>
hivel=45
key=D6
lovel=0
offset=13328
sample=Flute_staccato_PP_D6_RR4.opus
</region>

<region>
hivel=45
key=E4
lovel=0
offset=2426
sample=Flute_staccato_PP_E4_RR4.opus
</region>

<region>
hivel=45
key=E5
lovel=0
offset=3178
sample=Flute_staccato_PP_E5_RR4.opus
</region>

<region>
hivel=45
key=E6
lovel=0
offset=2166
sample=Flute_staccato_PP_E6_RR4.opus
</region>

<region>
hivel=45
key=F#4
lovel=0
offset=1455
sample=Flute_staccato_PP_F#4_RR4.opus
</region>

<region>
hivel=45
key=F#5
lovel=0
offset=2106
sample=Flute_staccato_PP_F#5_RR4.opus
</region>

<region>
hivel=45
key=F#6
lovel=0
offset=2496
sample=Flute_staccato_PP_F#6_RR4.opus
</region>

<region>
hivel=45
key=F4
lovel=0
offset=3021
sample=Flute_staccato_PP_F4_RR4.opus
</region>

<region>
hivel=45
key=F5
lovel=0
offset=1987
sample=Flute_staccato_PP_F5_RR4.opus
</region>

<region>
hivel=45
key=F6
lovel=0
offset=3153
sample=Flute_staccato_PP_F6_RR4.opus
</region>

<region>
hivel=45
key=G#4
lovel=0
offset=670
sample=Flute_staccato_PP_G#4_RR4.opus
</region>

<region>
hivel=45
key=G#5
lovel=0
offset=1163
sample=Flute_staccato_PP_G#5_RR4.opus
</region>

<region>
hivel=45
key=G#6
lovel=0
offset=1959
sample=Flute_staccato_PP_G#6_RR4.opus
</region>

<region>
hivel=45
key=G4
lovel=0
offset=2184
sample=Flute_staccato_PP_G4_RR4.opus
</region>

<region>
hivel=45
key=G5
lovel=0
offset=2206
sample=Flute_staccato_PP_G5_RR4.opus
</region>

<region>
hivel=45
key=G6
lovel=0
offset=2356
sample=Flute_staccato_PP_G6_RR4.opus
</region>
</group>